<mxfile host="app.diagrams.net" agent="Mozilla/5.0 (Windows NT 10.0; Win64; x64) AppleWebKit/537.36 (KHTML, like Gecko) Chrome/128.0.0.0 Safari/537.36" version="24.7.7">
  <diagram name="Page-1" id="GDxtNj5UNCA339lKAcvZ">
    <mxGraphModel dx="1050" dy="565" grid="1" gridSize="10" guides="1" tooltips="1" connect="1" arrows="1" fold="1" page="1" pageScale="1" pageWidth="827" pageHeight="1169" math="0" shadow="0">
      <root>
        <mxCell id="0" />
        <mxCell id="1" parent="0" />
        <mxCell id="3LyGnDn1bI_X9S3rV7D7-2" style="edgeStyle=orthogonalEdgeStyle;rounded=0;orthogonalLoop=1;jettySize=auto;html=1;exitX=1;exitY=0.5;exitDx=0;exitDy=0;entryX=0;entryY=0.5;entryDx=0;entryDy=0;endArrow=none;endFill=0;" parent="1" source="3LyGnDn1bI_X9S3rV7D7-5" target="3LyGnDn1bI_X9S3rV7D7-55" edge="1">
          <mxGeometry relative="1" as="geometry">
            <mxPoint x="525.06" y="1118.4600000000005" as="targetPoint" />
            <Array as="points">
              <mxPoint x="600" y="993" />
            </Array>
          </mxGeometry>
        </mxCell>
        <mxCell id="3LyGnDn1bI_X9S3rV7D7-5" value="Form" style="rounded=0;whiteSpace=wrap;html=1;" parent="1" vertex="1">
          <mxGeometry x="430.06" y="973.14" width="120" height="40" as="geometry" />
        </mxCell>
        <mxCell id="3LyGnDn1bI_X9S3rV7D7-12" style="rounded=0;orthogonalLoop=1;jettySize=auto;html=1;exitX=1;exitY=0.5;exitDx=0;exitDy=0;entryX=0;entryY=1;entryDx=0;entryDy=0;endArrow=none;endFill=0;" parent="1" source="3LyGnDn1bI_X9S3rV7D7-55" target="3LyGnDn1bI_X9S3rV7D7-62" edge="1">
          <mxGeometry relative="1" as="geometry">
            <mxPoint x="667" y="955.2799999999999" as="sourcePoint" />
            <mxPoint x="682.06" y="1122.7199999999998" as="targetPoint" />
          </mxGeometry>
        </mxCell>
        <mxCell id="3LyGnDn1bI_X9S3rV7D7-13" value="1" style="text;html=1;align=center;verticalAlign=middle;whiteSpace=wrap;rounded=0;" parent="1" vertex="1">
          <mxGeometry x="555.4899999999999" y="979.9799999999999" width="10" height="10.17" as="geometry" />
        </mxCell>
        <mxCell id="3LyGnDn1bI_X9S3rV7D7-23" style="edgeStyle=orthogonalEdgeStyle;rounded=0;orthogonalLoop=1;jettySize=auto;html=1;exitX=0.5;exitY=0;exitDx=0;exitDy=0;entryX=0.5;entryY=1;entryDx=0;entryDy=0;endArrow=none;endFill=0;" parent="1" source="3LyGnDn1bI_X9S3rV7D7-25" target="3LyGnDn1bI_X9S3rV7D7-5" edge="1">
          <mxGeometry relative="1" as="geometry" />
        </mxCell>
        <mxCell id="3LyGnDn1bI_X9S3rV7D7-24" style="edgeStyle=orthogonalEdgeStyle;rounded=0;orthogonalLoop=1;jettySize=auto;html=1;exitX=0.5;exitY=1;exitDx=0;exitDy=0;entryX=0.5;entryY=0;entryDx=0;entryDy=0;endArrow=none;endFill=0;shape=link;" parent="1" source="3LyGnDn1bI_X9S3rV7D7-25" target="3LyGnDn1bI_X9S3rV7D7-28" edge="1">
          <mxGeometry relative="1" as="geometry" />
        </mxCell>
        <mxCell id="3LyGnDn1bI_X9S3rV7D7-25" value="has" style="rhombus;whiteSpace=wrap;html=1;" parent="1" vertex="1">
          <mxGeometry x="455.06" y="1030" width="70" height="60" as="geometry" />
        </mxCell>
        <mxCell id="3LyGnDn1bI_X9S3rV7D7-26" style="rounded=0;orthogonalLoop=1;jettySize=auto;html=1;exitX=0.5;exitY=1;exitDx=0;exitDy=0;entryX=0.5;entryY=0;entryDx=0;entryDy=0;endArrow=none;endFill=0;" parent="1" source="3LyGnDn1bI_X9S3rV7D7-28" target="3LyGnDn1bI_X9S3rV7D7-37" edge="1">
          <mxGeometry relative="1" as="geometry">
            <mxPoint x="489.98999999999995" y="1168.45" as="targetPoint" />
          </mxGeometry>
        </mxCell>
        <mxCell id="3LyGnDn1bI_X9S3rV7D7-27" style="rounded=0;orthogonalLoop=1;jettySize=auto;html=1;exitX=0;exitY=0.25;exitDx=0;exitDy=0;entryX=1;entryY=1;entryDx=0;entryDy=0;endArrow=none;endFill=0;" parent="1" source="3LyGnDn1bI_X9S3rV7D7-28" target="3LyGnDn1bI_X9S3rV7D7-44" edge="1">
          <mxGeometry relative="1" as="geometry" />
        </mxCell>
        <mxCell id="3LyGnDn1bI_X9S3rV7D7-28" value="QuestionGroup" style="rounded=0;whiteSpace=wrap;html=1;" parent="1" vertex="1">
          <mxGeometry x="429.99" y="1111.65" width="120" height="40" as="geometry" />
        </mxCell>
        <mxCell id="3LyGnDn1bI_X9S3rV7D7-29" value="1" style="text;html=1;align=center;verticalAlign=middle;whiteSpace=wrap;rounded=0;" parent="1" vertex="1">
          <mxGeometry x="476.56" y="1017.3000000000001" width="7.5" height="9.83" as="geometry" />
        </mxCell>
        <mxCell id="3LyGnDn1bI_X9S3rV7D7-30" value="N" style="text;html=1;align=center;verticalAlign=middle;whiteSpace=wrap;rounded=0;" parent="1" vertex="1">
          <mxGeometry x="471.81000000000006" y="1089.65" width="15" height="20" as="geometry" />
        </mxCell>
        <mxCell id="3LyGnDn1bI_X9S3rV7D7-31" style="rounded=0;orthogonalLoop=1;jettySize=auto;html=1;exitX=0.895;exitY=1.004;exitDx=0;exitDy=0;entryX=0.5;entryY=0;entryDx=0;entryDy=0;endArrow=none;endFill=0;exitPerimeter=0;" parent="1" source="3LyGnDn1bI_X9S3rV7D7-35" target="3LyGnDn1bI_X9S3rV7D7-45" edge="1">
          <mxGeometry relative="1" as="geometry" />
        </mxCell>
        <mxCell id="3LyGnDn1bI_X9S3rV7D7-32" style="rounded=0;orthogonalLoop=1;jettySize=auto;html=1;exitX=0.667;exitY=0.997;exitDx=0;exitDy=0;entryX=0.5;entryY=0;entryDx=0;entryDy=0;endArrow=none;endFill=0;exitPerimeter=0;" parent="1" source="3LyGnDn1bI_X9S3rV7D7-35" target="3LyGnDn1bI_X9S3rV7D7-46" edge="1">
          <mxGeometry relative="1" as="geometry" />
        </mxCell>
        <mxCell id="3LyGnDn1bI_X9S3rV7D7-33" style="rounded=0;orthogonalLoop=1;jettySize=auto;html=1;exitX=0.37;exitY=0.997;exitDx=0;exitDy=0;endArrow=none;endFill=0;exitPerimeter=0;" parent="1" source="3LyGnDn1bI_X9S3rV7D7-35" target="3LyGnDn1bI_X9S3rV7D7-47" edge="1">
          <mxGeometry relative="1" as="geometry" />
        </mxCell>
        <mxCell id="3LyGnDn1bI_X9S3rV7D7-34" style="rounded=0;orthogonalLoop=1;jettySize=auto;html=1;exitX=0.162;exitY=0.985;exitDx=0;exitDy=0;entryX=0.5;entryY=0;entryDx=0;entryDy=0;endArrow=none;endFill=0;exitPerimeter=0;dashed=1;" parent="1" source="3LyGnDn1bI_X9S3rV7D7-35" target="3LyGnDn1bI_X9S3rV7D7-48" edge="1">
          <mxGeometry relative="1" as="geometry" />
        </mxCell>
        <mxCell id="3LyGnDn1bI_X9S3rV7D7-35" value="Question" style="rounded=0;whiteSpace=wrap;html=1;" parent="1" vertex="1">
          <mxGeometry x="429.99" y="1240.27" width="120" height="40" as="geometry" />
        </mxCell>
        <mxCell id="3LyGnDn1bI_X9S3rV7D7-36" style="rounded=0;orthogonalLoop=1;jettySize=auto;html=1;exitX=0.5;exitY=1;exitDx=0;exitDy=0;entryX=0.5;entryY=0;entryDx=0;entryDy=0;endArrow=none;endFill=0;shape=link;" parent="1" source="3LyGnDn1bI_X9S3rV7D7-37" target="3LyGnDn1bI_X9S3rV7D7-35" edge="1">
          <mxGeometry relative="1" as="geometry">
            <mxPoint x="553.3299999999999" y="1362.23" as="sourcePoint" />
          </mxGeometry>
        </mxCell>
        <mxCell id="3LyGnDn1bI_X9S3rV7D7-37" value="has" style="rhombus;whiteSpace=wrap;html=1;" parent="1" vertex="1">
          <mxGeometry x="454.99" y="1165.85" width="70" height="60" as="geometry" />
        </mxCell>
        <mxCell id="3LyGnDn1bI_X9S3rV7D7-38" value="1" style="text;html=1;align=center;verticalAlign=middle;whiteSpace=wrap;rounded=0;" parent="1" vertex="1">
          <mxGeometry x="472.81000000000006" y="1149.0000000000002" width="15" height="20" as="geometry" />
        </mxCell>
        <mxCell id="3LyGnDn1bI_X9S3rV7D7-39" value="N" style="text;html=1;align=center;verticalAlign=middle;whiteSpace=wrap;rounded=0;" parent="1" vertex="1">
          <mxGeometry x="472.80999999999995" y="1224.85" width="15" height="14.42" as="geometry" />
        </mxCell>
        <mxCell id="3LyGnDn1bI_X9S3rV7D7-44" value="&lt;u&gt;Id&lt;/u&gt;" style="ellipse;whiteSpace=wrap;html=1;" parent="1" vertex="1">
          <mxGeometry x="373.68" y="1100" width="38.5" height="20" as="geometry" />
        </mxCell>
        <mxCell id="3LyGnDn1bI_X9S3rV7D7-45" value="&lt;u&gt;Id&lt;/u&gt;" style="ellipse;whiteSpace=wrap;html=1;" parent="1" vertex="1">
          <mxGeometry x="536.4900000000001" y="1301.3899999999999" width="40" height="18.75" as="geometry" />
        </mxCell>
        <mxCell id="3LyGnDn1bI_X9S3rV7D7-46" value="Text" style="ellipse;whiteSpace=wrap;html=1;" parent="1" vertex="1">
          <mxGeometry x="496.49" y="1301.3899999999999" width="35" height="23.75" as="geometry" />
        </mxCell>
        <mxCell id="3LyGnDn1bI_X9S3rV7D7-47" value="Type" style="ellipse;whiteSpace=wrap;html=1;" parent="1" vertex="1">
          <mxGeometry x="451.49" y="1300.23" width="41" height="28.75" as="geometry" />
        </mxCell>
        <mxCell id="3LyGnDn1bI_X9S3rV7D7-48" value="Options" style="ellipse;whiteSpace=wrap;html=1;" parent="1" vertex="1">
          <mxGeometry x="397.49" y="1293.3600000000001" width="50" height="35.62" as="geometry" />
        </mxCell>
        <mxCell id="3LyGnDn1bI_X9S3rV7D7-55" value="has" style="rhombus;whiteSpace=wrap;html=1;" parent="1" vertex="1">
          <mxGeometry x="569.9999999999999" y="963.14" width="70" height="60" as="geometry" />
        </mxCell>
        <mxCell id="3LyGnDn1bI_X9S3rV7D7-56" value="N" style="text;html=1;align=center;verticalAlign=middle;whiteSpace=wrap;rounded=0;" parent="1" vertex="1">
          <mxGeometry x="719.5099999999999" y="939.6400000000001" width="10" height="12.5" as="geometry" />
        </mxCell>
        <mxCell id="3LyGnDn1bI_X9S3rV7D7-60" value="" style="rounded=0;orthogonalLoop=1;jettySize=auto;html=1;endArrow=none;endFill=0;" parent="1" source="3LyGnDn1bI_X9S3rV7D7-62" target="3LyGnDn1bI_X9S3rV7D7-63" edge="1">
          <mxGeometry relative="1" as="geometry" />
        </mxCell>
        <mxCell id="3LyGnDn1bI_X9S3rV7D7-120" style="rounded=0;orthogonalLoop=1;jettySize=auto;html=1;exitX=0.25;exitY=1;exitDx=0;exitDy=0;entryX=0.5;entryY=0;entryDx=0;entryDy=0;endArrow=none;endFill=0;edgeStyle=orthogonalEdgeStyle;shape=link;" parent="1" source="3LyGnDn1bI_X9S3rV7D7-62" target="3LyGnDn1bI_X9S3rV7D7-101" edge="1">
          <mxGeometry relative="1" as="geometry">
            <Array as="points">
              <mxPoint x="762.51" y="972.9999999999999" />
            </Array>
          </mxGeometry>
        </mxCell>
        <mxCell id="3LyGnDn1bI_X9S3rV7D7-125" style="edgeStyle=orthogonalEdgeStyle;rounded=0;orthogonalLoop=1;jettySize=auto;html=1;exitX=0.75;exitY=1;exitDx=0;exitDy=0;entryX=0.5;entryY=0;entryDx=0;entryDy=0;shape=link;" parent="1" source="3LyGnDn1bI_X9S3rV7D7-62" target="3LyGnDn1bI_X9S3rV7D7-123" edge="1">
          <mxGeometry relative="1" as="geometry" />
        </mxCell>
        <mxCell id="3LyGnDn1bI_X9S3rV7D7-62" value="Rule" style="rounded=0;whiteSpace=wrap;html=1;" parent="1" vertex="1">
          <mxGeometry x="732.5099999999999" y="914.1400000000001" width="120" height="40" as="geometry" />
        </mxCell>
        <mxCell id="3LyGnDn1bI_X9S3rV7D7-63" value="&lt;u&gt;Id&lt;/u&gt;" style="ellipse;whiteSpace=wrap;html=1;" parent="1" vertex="1">
          <mxGeometry x="772.51" y="884.14" width="40" height="20" as="geometry" />
        </mxCell>
        <mxCell id="3LyGnDn1bI_X9S3rV7D7-99" style="rounded=0;orthogonalLoop=1;jettySize=auto;html=1;exitX=1;exitY=0.5;exitDx=0;exitDy=0;entryX=0;entryY=0.75;entryDx=0;entryDy=0;endArrow=none;endFill=0;" parent="1" source="3LyGnDn1bI_X9S3rV7D7-98" target="3LyGnDn1bI_X9S3rV7D7-28" edge="1">
          <mxGeometry relative="1" as="geometry" />
        </mxCell>
        <mxCell id="3LyGnDn1bI_X9S3rV7D7-98" value="Name" style="ellipse;whiteSpace=wrap;html=1;" parent="1" vertex="1">
          <mxGeometry x="373.68" y="1134.8500000000001" width="46.06" height="31" as="geometry" />
        </mxCell>
        <mxCell id="3LyGnDn1bI_X9S3rV7D7-101" value="has" style="rhombus;whiteSpace=wrap;html=1;" parent="1" vertex="1">
          <mxGeometry x="734.5099999999999" y="972.8799999999998" width="56.72" height="56.25" as="geometry" />
        </mxCell>
        <mxCell id="3LyGnDn1bI_X9S3rV7D7-121" style="edgeStyle=orthogonalEdgeStyle;rounded=0;orthogonalLoop=1;jettySize=auto;html=1;exitX=0.5;exitY=0;exitDx=0;exitDy=0;entryX=0.5;entryY=1;entryDx=0;entryDy=0;shape=link;" parent="1" source="3LyGnDn1bI_X9S3rV7D7-105" target="3LyGnDn1bI_X9S3rV7D7-101" edge="1">
          <mxGeometry relative="1" as="geometry">
            <Array as="points">
              <mxPoint x="727.51" y="1040.9999999999998" />
              <mxPoint x="762.51" y="1040.9999999999998" />
            </Array>
          </mxGeometry>
        </mxCell>
        <mxCell id="3LyGnDn1bI_X9S3rV7D7-105" value="Event" style="rounded=0;whiteSpace=wrap;html=1;" parent="1" vertex="1">
          <mxGeometry x="667.5099999999999" y="1052.6499999999996" width="120" height="40" as="geometry" />
        </mxCell>
        <mxCell id="3LyGnDn1bI_X9S3rV7D7-106" style="rounded=0;orthogonalLoop=1;jettySize=auto;html=1;exitX=0.634;exitY=0.029;exitDx=0;exitDy=0;entryX=0.144;entryY=1.013;entryDx=0;entryDy=0;endArrow=none;endFill=0;entryPerimeter=0;exitPerimeter=0;" parent="1" source="3LyGnDn1bI_X9S3rV7D7-107" target="3LyGnDn1bI_X9S3rV7D7-105" edge="1">
          <mxGeometry relative="1" as="geometry" />
        </mxCell>
        <mxCell id="3LyGnDn1bI_X9S3rV7D7-107" value="&lt;u&gt;Id&lt;/u&gt;" style="ellipse;whiteSpace=wrap;html=1;" parent="1" vertex="1">
          <mxGeometry x="637.9999999999999" y="1106.8499999999997" width="40.99" height="30" as="geometry" />
        </mxCell>
        <mxCell id="3LyGnDn1bI_X9S3rV7D7-108" style="rounded=0;orthogonalLoop=1;jettySize=auto;html=1;exitX=0.5;exitY=0;exitDx=0;exitDy=0;entryX=0.422;entryY=1.009;entryDx=0;entryDy=0;endArrow=none;endFill=0;entryPerimeter=0;" parent="1" source="3LyGnDn1bI_X9S3rV7D7-109" target="3LyGnDn1bI_X9S3rV7D7-105" edge="1">
          <mxGeometry relative="1" as="geometry">
            <mxPoint x="748.9681778886594" y="1129.1263340638538" as="sourcePoint" />
          </mxGeometry>
        </mxCell>
        <mxCell id="3LyGnDn1bI_X9S3rV7D7-109" value="EventType" style="ellipse;whiteSpace=wrap;html=1;" parent="1" vertex="1">
          <mxGeometry x="682.51" y="1103.4999999999998" width="70" height="37.5" as="geometry" />
        </mxCell>
        <mxCell id="3LyGnDn1bI_X9S3rV7D7-110" value="N" style="text;html=1;align=center;verticalAlign=middle;whiteSpace=wrap;rounded=0;" parent="1" vertex="1">
          <mxGeometry x="712.51" y="1039.09" width="10" height="11.65" as="geometry" />
        </mxCell>
        <mxCell id="3LyGnDn1bI_X9S3rV7D7-119" style="rounded=0;orthogonalLoop=1;jettySize=auto;html=1;exitX=0.5;exitY=0;exitDx=0;exitDy=0;entryX=0.917;entryY=1.015;entryDx=0;entryDy=0;endArrow=none;endFill=0;entryPerimeter=0;dashed=1;" parent="1" source="3LyGnDn1bI_X9S3rV7D7-118" target="3LyGnDn1bI_X9S3rV7D7-105" edge="1">
          <mxGeometry relative="1" as="geometry" />
        </mxCell>
        <mxCell id="3LyGnDn1bI_X9S3rV7D7-118" value="Target" style="ellipse;whiteSpace=wrap;html=1;" parent="1" vertex="1">
          <mxGeometry x="755.69" y="1109.9999999999998" width="46.82" height="31" as="geometry" />
        </mxCell>
        <mxCell id="3LyGnDn1bI_X9S3rV7D7-122" value="TopLevelCondition" style="rounded=0;whiteSpace=wrap;html=1;" parent="1" vertex="1">
          <mxGeometry x="802.51" y="1052.6499999999996" width="120" height="40" as="geometry" />
        </mxCell>
        <mxCell id="3LyGnDn1bI_X9S3rV7D7-126" style="edgeStyle=orthogonalEdgeStyle;rounded=0;orthogonalLoop=1;jettySize=auto;html=1;exitX=0.5;exitY=1;exitDx=0;exitDy=0;entryX=0.5;entryY=0;entryDx=0;entryDy=0;shape=link;" parent="1" source="3LyGnDn1bI_X9S3rV7D7-123" target="3LyGnDn1bI_X9S3rV7D7-122" edge="1">
          <mxGeometry relative="1" as="geometry">
            <Array as="points">
              <mxPoint x="822.51" y="1040.9999999999998" />
              <mxPoint x="862.51" y="1040.9999999999998" />
            </Array>
          </mxGeometry>
        </mxCell>
        <mxCell id="3LyGnDn1bI_X9S3rV7D7-123" value="has" style="rhombus;whiteSpace=wrap;html=1;" parent="1" vertex="1">
          <mxGeometry x="793.7899999999998" y="972.9999999999997" width="56.72" height="56.25" as="geometry" />
        </mxCell>
        <mxCell id="3LyGnDn1bI_X9S3rV7D7-128" value="1" style="text;html=1;align=center;verticalAlign=middle;whiteSpace=wrap;rounded=0;" parent="1" vertex="1">
          <mxGeometry x="749.51" y="956.3100000000002" width="7.5" height="9.83" as="geometry" />
        </mxCell>
        <mxCell id="3LyGnDn1bI_X9S3rV7D7-129" value="1" style="text;html=1;align=center;verticalAlign=middle;whiteSpace=wrap;rounded=0;" parent="1" vertex="1">
          <mxGeometry x="810.51" y="956.3100000000002" width="7.5" height="9.83" as="geometry" />
        </mxCell>
        <mxCell id="3LyGnDn1bI_X9S3rV7D7-130" value="1" style="text;html=1;align=center;verticalAlign=middle;whiteSpace=wrap;rounded=0;" parent="1" vertex="1">
          <mxGeometry x="865.51" y="1040.91" width="7.5" height="9.83" as="geometry" />
        </mxCell>
        <mxCell id="ASeWlU5oI8XA2aYk_bqq-11" style="edgeStyle=orthogonalEdgeStyle;rounded=0;orthogonalLoop=1;jettySize=auto;html=1;exitX=1;exitY=0.5;exitDx=0;exitDy=0;entryX=0;entryY=0.5;entryDx=0;entryDy=0;endArrow=none;endFill=0;" parent="1" source="ASeWlU5oI8XA2aYk_bqq-1" target="ASeWlU5oI8XA2aYk_bqq-10" edge="1">
          <mxGeometry relative="1" as="geometry" />
        </mxCell>
        <mxCell id="ASeWlU5oI8XA2aYk_bqq-1" value="Inconsistency" style="rounded=0;whiteSpace=wrap;html=1;" parent="1" vertex="1">
          <mxGeometry x="430.06" y="839.14" width="120" height="40" as="geometry" />
        </mxCell>
        <mxCell id="ASeWlU5oI8XA2aYk_bqq-4" style="edgeStyle=orthogonalEdgeStyle;rounded=0;orthogonalLoop=1;jettySize=auto;html=1;exitX=0.5;exitY=1;exitDx=0;exitDy=0;entryX=0.5;entryY=0;entryDx=0;entryDy=0;endArrow=none;endFill=0;" parent="1" source="ASeWlU5oI8XA2aYk_bqq-3" target="ASeWlU5oI8XA2aYk_bqq-1" edge="1">
          <mxGeometry relative="1" as="geometry" />
        </mxCell>
        <mxCell id="ASeWlU5oI8XA2aYk_bqq-3" value="&lt;u&gt;Id&lt;/u&gt;" style="ellipse;whiteSpace=wrap;html=1;" parent="1" vertex="1">
          <mxGeometry x="470.74" y="809.14" width="38.5" height="20" as="geometry" />
        </mxCell>
        <mxCell id="ASeWlU5oI8XA2aYk_bqq-6" style="edgeStyle=orthogonalEdgeStyle;rounded=0;orthogonalLoop=1;jettySize=auto;html=1;exitX=0.5;exitY=0;exitDx=0;exitDy=0;entryX=0.5;entryY=1;entryDx=0;entryDy=0;endArrow=none;endFill=0;shape=link;" parent="1" source="ASeWlU5oI8XA2aYk_bqq-5" target="ASeWlU5oI8XA2aYk_bqq-1" edge="1">
          <mxGeometry relative="1" as="geometry" />
        </mxCell>
        <mxCell id="ASeWlU5oI8XA2aYk_bqq-7" style="edgeStyle=orthogonalEdgeStyle;rounded=0;orthogonalLoop=1;jettySize=auto;html=1;exitX=0.5;exitY=1;exitDx=0;exitDy=0;entryX=0.5;entryY=0;entryDx=0;entryDy=0;endArrow=none;endFill=0;" parent="1" source="ASeWlU5oI8XA2aYk_bqq-5" target="3LyGnDn1bI_X9S3rV7D7-5" edge="1">
          <mxGeometry relative="1" as="geometry" />
        </mxCell>
        <mxCell id="ASeWlU5oI8XA2aYk_bqq-5" value="refers" style="rhombus;whiteSpace=wrap;html=1;" parent="1" vertex="1">
          <mxGeometry x="454.9899999999999" y="896.15" width="70" height="60" as="geometry" />
        </mxCell>
        <mxCell id="ASeWlU5oI8XA2aYk_bqq-10" value="has" style="rhombus;whiteSpace=wrap;html=1;" parent="1" vertex="1">
          <mxGeometry x="569.9999999999999" y="829.14" width="70" height="60" as="geometry" />
        </mxCell>
        <mxCell id="ASeWlU5oI8XA2aYk_bqq-12" style="rounded=0;orthogonalLoop=1;jettySize=auto;html=1;exitX=1;exitY=0.5;exitDx=0;exitDy=0;entryX=0;entryY=0;entryDx=0;entryDy=0;endArrow=none;endFill=0;" parent="1" source="ASeWlU5oI8XA2aYk_bqq-10" target="3LyGnDn1bI_X9S3rV7D7-62" edge="1">
          <mxGeometry relative="1" as="geometry">
            <mxPoint x="650" y="1003" as="sourcePoint" />
            <mxPoint x="790" y="989" as="targetPoint" />
          </mxGeometry>
        </mxCell>
        <mxCell id="ASeWlU5oI8XA2aYk_bqq-14" value="N" style="text;html=1;align=center;verticalAlign=middle;whiteSpace=wrap;rounded=0;" parent="1" vertex="1">
          <mxGeometry x="719.5099999999999" y="891.6400000000001" width="10" height="12.5" as="geometry" />
        </mxCell>
        <mxCell id="ASeWlU5oI8XA2aYk_bqq-15" value="" style="endArrow=none;html=1;rounded=0;curved=1;" parent="1" edge="1">
          <mxGeometry width="50" height="50" relative="1" as="geometry">
            <mxPoint x="700" y="990" as="sourcePoint" />
            <mxPoint x="700" y="870" as="targetPoint" />
            <Array as="points">
              <mxPoint x="670" y="930" />
            </Array>
          </mxGeometry>
        </mxCell>
        <mxCell id="ASeWlU5oI8XA2aYk_bqq-17" value="1" style="text;html=1;align=center;verticalAlign=middle;whiteSpace=wrap;rounded=0;" parent="1" vertex="1">
          <mxGeometry x="478.31" y="960.0500000000002" width="7.5" height="9.83" as="geometry" />
        </mxCell>
        <mxCell id="ASeWlU5oI8XA2aYk_bqq-18" value="N" style="text;html=1;align=center;verticalAlign=middle;whiteSpace=wrap;rounded=0;" parent="1" vertex="1">
          <mxGeometry x="477.31" y="881.14" width="7.51" height="14.14" as="geometry" />
        </mxCell>
        <mxCell id="ASeWlU5oI8XA2aYk_bqq-22" value="1" style="text;html=1;align=center;verticalAlign=middle;whiteSpace=wrap;rounded=0;" parent="1" vertex="1">
          <mxGeometry x="555.4899999999999" y="844.9999999999999" width="10" height="10.17" as="geometry" />
        </mxCell>
      </root>
    </mxGraphModel>
  </diagram>
</mxfile>
